<svg version="1.1" id="Layer_1" xmlns="http://www.w3.org/2000/svg" xmlns:xlink="http://www.w3.org/1999/xlink" x="0px" y="0px"
	 width="100%" viewBox="0 0 496 496" enable-background="new 0 0 496 496" xml:space="preserve">
<path fill="#000000" opacity="1.000000" stroke="none" 
	d="
M214.178528,228.821838 
	C211.098267,225.748474 208.046371,223.113358 205.478455,220.069855 
	C202.773788,216.864288 200.790039,217.525177 198.260345,220.227417 
	C193.940811,224.841537 189.279831,229.135788 184.954422,233.744736 
	C182.572006,236.283325 180.830780,236.247879 178.441620,233.694412 
	C173.207520,228.100449 167.685791,222.776779 162.358566,217.268219 
	C160.532700,215.380157 158.627670,214.235397 155.838348,214.279709 
	C147.176163,214.417374 138.508545,214.425140 129.846756,214.272583 
	C126.479553,214.213287 124.985916,215.298691 125.067108,218.838058 
	C125.235199,226.165726 125.173561,233.499893 125.118401,240.830719 
	C125.102509,242.944031 125.866173,244.593933 127.023270,246.330307 
	C130.255295,251.180420 129.655319,256.512634 125.763489,259.865265 
	C122.119621,263.004272 117.070541,262.933746 113.455040,259.693329 
	C109.310600,255.978836 108.768776,251.243607 112.342979,246.334045 
	C114.044426,243.996979 114.439423,241.708939 114.379692,238.905411 
	C114.159988,228.593369 114.290237,218.274384 114.162193,207.959579 
	C114.121620,204.691544 115.521118,203.632248 118.684380,203.656494 
	C132.513306,203.762497 146.343887,203.750961 160.172989,203.654968 
	C162.758072,203.637039 164.558395,204.642624 166.270599,206.408783 
	C171.125092,211.416229 176.074310,216.331894 181.457077,221.758377 
	C187.198853,216.084412 192.777313,210.915421 197.927658,205.350189 
	C200.898987,202.139511 202.935883,201.901154 205.883133,205.323395 
	C210.757996,210.983932 216.006348,216.322815 221.408340,222.131607 
	C226.091400,217.652954 229.822906,214.164307 233.464310,210.584030 
	C239.711838,204.441376 240.805389,204.582733 246.400620,213.620224 
	C239.062943,220.595123 231.473419,227.794373 223.905685,235.016449 
	C222.478119,236.378799 221.285278,236.027176 220.053574,234.756363 
	C218.198441,232.842316 216.299835,230.970367 214.178528,228.821838 
z"/>
<path fill="#000000" opacity="1.000000" stroke="none" 
	d="
M260.046173,209.848129 
	C254.877502,204.651062 249.991241,199.650909 244.977997,194.781448 
	C242.971024,192.832031 243.013855,191.385406 245.027878,189.415512 
	C252.400116,182.204895 259.716827,174.932983 266.879974,167.515625 
	C269.336853,164.971573 271.040558,165.134338 273.416870,167.582809 
	C280.367706,174.744781 287.377747,181.860321 294.628845,188.714432 
	C297.479462,191.408951 297.026520,193.005768 294.488800,195.517792 
	C277.691223,212.145218 261.043793,228.924179 244.296173,245.602280 
	C241.998474,247.890411 240.340485,250.107315 240.113800,253.675980 
	C239.792618,258.732056 235.276443,262.178162 230.506500,261.909393 
	C225.946106,261.652435 222.116867,257.886505 221.673203,253.222137 
	C221.186905,248.109543 224.028885,243.605301 228.914307,242.870453 
	C231.999680,242.406372 234.085220,240.933563 236.107513,238.888626 
	C243.830338,231.079422 251.588974,223.305634 259.330566,215.514938 
	C260.900726,213.934845 262.602692,212.364563 260.046173,209.848129 
M273.716858,182.818542 
	C272.242828,181.630753 270.862488,179.306747 268.716187,181.219269 
	C265.380981,184.191254 261.184967,186.993805 259.499298,190.814713 
	C257.483490,195.383942 263.417664,197.190857 265.739777,200.252548 
	C267.002167,201.917023 268.770660,205.018921 271.772217,202.691757 
	C275.781403,199.583344 279.226013,195.862289 282.454834,192.004669 
	C279.435516,188.832031 276.815948,186.079453 273.716858,182.818542 
z"/>
<path fill="#000000" opacity="1.000000" stroke="none" 
	d="
M370.232056,167.828262 
	C367.475952,165.127701 365.024780,162.629211 362.463257,160.249496 
	C360.320831,158.259125 360.191406,156.581528 362.428223,154.441055 
	C367.480377,149.606476 372.370453,144.601089 377.275940,139.615479 
	C379.333557,137.524246 381.227386,136.859680 383.597229,139.273651 
	C388.726074,144.497955 393.981384,149.598068 399.184021,154.749908 
	C400.733337,156.284103 401.027435,157.854919 399.329926,159.495651 
	C398.851135,159.958450 398.471954,160.555832 397.931030,160.918243 
	C387.327576,168.022339 385.151825,178.046173 385.886658,190.271286 
	C386.864655,206.541367 386.143585,222.915176 386.088196,239.244202 
	C386.078949,241.977249 386.552826,244.348038 388.145844,246.738205 
	C391.278259,251.437927 390.547791,256.532532 386.754272,259.829193 
	C383.370880,262.769440 378.265472,262.801880 374.808563,259.905182 
	C370.758881,256.511749 369.890656,251.720245 372.969269,246.989960 
	C374.633636,244.432648 375.040100,241.860901 375.033234,238.973495 
	C374.985748,218.978638 374.883575,198.982483 375.081238,178.989548 
	C375.125977,174.462250 374.152069,170.824829 370.232056,167.828262 
M383.795563,160.282104 
	C386.860504,157.782333 385.199890,155.872726 383.117432,153.840225 
	C381.086090,151.857574 379.421295,152.251205 377.683167,154.162735 
	C376.238800,155.751144 374.296234,157.170898 376.612183,159.492920 
	C378.557953,161.443787 380.333954,164.247070 383.795563,160.282104 
z"/>
<path fill="#000000" opacity="1.000000" stroke="none" 
	d="
M363.201172,193.982391 
	C363.073669,206.360168 363.073669,206.350098 351.120667,206.345703 
	C340.302368,206.341736 329.483734,206.410233 318.665955,206.339264 
	C316.029510,206.321991 313.934753,206.908432 311.982697,208.884842 
	C299.469940,221.553574 286.854797,234.121307 274.247101,246.695953 
	C272.671997,248.266907 271.743439,249.789505 271.697937,252.278183 
	C271.598633,257.708313 267.095215,262.043671 262.272339,262.058990 
	C257.562531,262.073944 253.278839,258.229218 252.723053,253.488251 
	C252.072861,247.941711 254.943634,243.857101 260.723450,242.787872 
	C263.056885,242.356186 264.639099,241.218704 266.194122,239.669861 
	C279.750214,226.167587 293.372406,212.731201 306.852631,199.153778 
	C309.284149,196.704727 311.837769,195.723373 315.251495,195.775574 
	C325.900909,195.938538 336.557007,195.703232 347.204865,195.911301 
	C351.331207,195.991959 352.988708,194.526291 352.716095,190.410385 
	C352.507660,187.263336 352.810852,184.085587 352.702118,180.927841 
	C352.581909,177.435638 354.543976,176.713959 357.472931,176.898575 
	C360.283752,177.075745 363.420654,176.560242 363.279663,181.005463 
	C363.147766,185.162628 363.220825,189.326324 363.201172,193.982391 
z"/>
<path fill="#000000" opacity="1.000000" stroke="none" 
	d="
M131.032623,329.962524 
	C218.015945,329.965363 304.506378,329.957855 390.996796,330.025146 
	C393.373413,330.026978 396.369781,328.823212 397.983673,331.886627 
	C397.091217,333.979645 395.415680,333.429138 394.005219,333.460236 
	C386.345581,333.629028 378.685120,333.875610 371.024872,333.878235 
	C293.366821,333.904724 215.708786,333.895477 138.050751,333.866516 
	C134.056747,333.865021 130.061646,333.619843 126.069260,333.439423 
	C123.037483,333.302399 120.196266,333.277344 117.806000,335.830811 
	C115.878082,337.890381 113.548782,337.332825 111.604156,335.483521 
	C109.674210,333.648193 109.194427,331.491516 110.712837,329.191772 
	C112.176567,326.974884 114.656403,325.710968 116.695770,327.343079 
	C120.996811,330.785156 125.814888,329.756256 131.032623,329.962524 
z"/>
<path fill="#000000" opacity="1.000000" stroke="none" 
	d="
M216.403809,310.392242 
	C209.187622,316.386780 197.558868,317.369843 189.873428,312.884979 
	C184.007690,309.462006 180.406296,300.587830 182.028381,293.164856 
	C183.671783,285.644318 188.174393,280.509277 195.761200,278.944519 
	C203.947021,277.256256 211.913788,277.914886 217.514343,285.199371 
	C222.566788,291.770935 222.550446,299.059845 219.179382,306.416138 
	C218.566101,307.754486 217.512054,308.890900 216.403809,310.392242 
M193.032150,299.583099 
	C194.211349,303.538239 196.915146,305.627014 200.979477,305.905701 
	C204.581985,306.152649 207.465073,304.804260 209.308884,301.621857 
	C211.467407,297.896301 211.005997,294.158173 208.471771,290.945099 
	C205.743515,287.485962 201.710648,287.403015 198.020416,288.782928 
	C193.541046,290.457977 192.287994,294.341797 193.032150,299.583099 
z"/>
<path fill="#000000" opacity="1.000000" stroke="none" 
	d="
M159.673752,279.820374 
	C169.357208,284.332001 171.378220,293.243683 164.456223,300.402740 
	C162.556259,302.367798 162.807358,303.631042 164.173141,305.463440 
	C166.140610,308.103027 167.990829,310.830048 170.060013,313.758820 
	C158.804321,319.121490 155.272644,309.417572 149.961639,303.383179 
	C147.426956,306.009216 148.250168,308.624603 148.268707,310.918335 
	C148.300491,314.853577 145.878067,315.088257 142.983200,315.058594 
	C140.067322,315.028778 137.043030,315.243317 137.040100,311.000305 
	C137.033646,301.682037 137.027756,292.363800 137.038391,283.045532 
	C137.041290,280.507294 138.095184,278.862213 140.882050,278.948120 
	C147.016754,279.137238 153.198761,278.219208 159.673752,279.820374 
M154.817932,288.405304 
	C152.574707,288.678253 149.600830,286.891235 148.454849,290.276245 
	C147.956055,291.749573 147.733246,293.894989 149.730194,294.569427 
	C152.235977,295.415680 155.159958,295.933929 157.047531,293.494934 
	C158.453369,291.678436 157.802841,289.720886 154.817932,288.405304 
z"/>
<path fill="#000000" opacity="1.000000" stroke="none" 
	d="
M340.620361,288.463440 
	C337.876587,287.055725 335.739014,287.695190 334.015808,289.588745 
	C332.750061,290.979675 331.244537,291.403259 329.530182,291.240723 
	C327.477478,291.046082 324.685455,292.239349 323.637054,289.837128 
	C322.563843,287.378052 324.180725,284.955109 325.790466,283.045593 
	C330.739655,277.174652 344.886047,277.127380 350.009979,282.862152 
	C355.810394,289.354034 352.722809,299.070435 344.388855,301.425568 
	C340.891388,302.413940 336.756989,301.113892 332.614014,304.712067 
	C338.278381,306.388031 343.028656,305.727203 347.605225,305.565094 
	C352.465729,305.392944 353.156952,307.561890 352.630066,311.660156 
	C352.292145,314.288635 351.082123,315.059662 348.745667,315.050812 
	C341.579865,315.023682 334.413177,314.977173 327.248322,315.062408 
	C323.844910,315.102905 322.743927,313.643311 322.579620,310.247650 
	C322.056519,299.436798 325.059448,293.894836 337.003754,293.388550 
	C339.273651,293.292328 343.051300,293.032196 340.620361,288.463440 
z"/>
<path fill="#000000" opacity="1.000000" stroke="none" 
	d="
M261.222137,295.711792 
	C267.992310,303.646790 265.574524,312.140808 256.095795,314.949097 
	C251.174088,316.407288 246.107391,316.699707 241.372025,314.757263 
	C231.724564,310.799896 232.265015,308.763031 239.225220,303.077301 
	C243.864014,304.663635 248.576706,309.219055 254.198242,304.208038 
	C252.505310,300.977753 249.708862,301.449982 247.174988,301.218414 
	C239.034302,300.474396 234.707306,296.433777 234.662628,289.754028 
	C234.639603,286.312378 236.040588,283.612518 238.603226,281.498169 
	C244.369644,276.740479 256.881866,277.569550 262.686462,283.164490 
	C260.674805,287.693726 258.045227,290.617401 252.441177,288.093658 
	C250.068161,287.025024 247.652267,287.338318 245.419052,290.104614 
	C250.487305,292.932465 256.632690,291.770538 261.222137,295.711792 
z"/>
<path fill="#000000" opacity="1.000000" stroke="none" 
	d="
M385.735931,279.058563 
	C394.279358,278.822449 394.279266,278.822449 394.284393,287.056152 
	C394.286163,289.883667 394.293365,292.711182 394.288818,295.538696 
	C394.285858,297.393982 394.247131,299.176270 396.379700,300.155334 
	C397.948364,300.875458 398.028717,302.467316 398.116302,304.014832 
	C398.461060,310.104187 392.690338,315.848541 387.069427,314.989838 
	C385.702850,314.781067 384.120209,314.546478 384.022736,312.970703 
	C383.755371,308.648285 380.700562,309.173126 377.895050,309.154541 
	C375.899292,309.141296 373.903229,309.172394 371.907410,309.162445 
	C366.154938,309.133881 362.927246,304.185303 366.489868,299.542908 
	C372.110687,292.218506 377.890564,284.863770 385.735931,279.058563 
M382.064636,295.190216 
	C381.140350,296.479401 379.600403,297.349274 379.311768,299.208313 
	C380.934723,300.049103 382.390167,300.281097 383.467438,298.457794 
	C383.988922,297.575195 383.635651,296.468445 382.064636,295.190216 
z"/>
<path fill="#000000" opacity="1.000000" stroke="none" 
	d="
M110.884903,314.006287 
	C109.104179,303.114868 110.079254,292.481873 110.016579,281.873260 
	C109.996269,278.436188 113.027596,278.924896 115.281097,278.960815 
	C117.678604,278.999023 120.868324,278.409637 120.935196,282.118073 
	C121.112045,291.925873 121.010025,301.738953 120.992867,311.549866 
	C120.988968,313.776581 119.757294,314.887573 117.569160,314.956543 
	C115.421127,315.024231 113.240967,315.365997 110.884903,314.006287 
z"/>
<path fill="#000000" opacity="1.000000" stroke="none" 
	d="
M161.616135,374.175476 
	C149.406952,374.135101 150.898376,375.316589 150.787399,363.774658 
	C150.753830,360.282532 150.775848,356.789612 150.805313,353.297302 
	C150.814972,352.152222 150.671448,350.932434 151.566132,349.998779 
	C154.761429,346.664337 168.147690,349.793060 169.622604,354.154053 
	C170.206345,355.880005 169.940689,357.438934 169.221512,358.976532 
	C168.627960,360.245544 168.588043,361.341888 169.112930,362.745026 
	C171.877457,370.135223 170.343124,372.531708 161.616135,374.175476 
M162.724091,370.585388 
	C165.081345,369.898041 167.562149,368.840454 166.420624,365.917053 
	C164.823502,361.826904 160.865036,363.411407 157.760605,363.177979 
	C155.232407,362.987915 154.252991,364.423950 154.291077,366.835602 
	C154.388641,373.013397 159.078064,369.982117 162.724091,370.585388 
M161.856796,359.675781 
	C164.364731,359.324524 167.016464,358.337311 166.016754,355.436859 
	C164.628876,351.410187 160.622543,352.422852 157.380264,352.338806 
	C154.536362,352.265076 154.195175,354.183746 154.289734,356.369751 
	C154.514252,361.560089 158.539124,359.096710 161.856796,359.675781 
z"/>
<path fill="#000000" opacity="1.000000" stroke="none" 
	d="
M364.028503,374.202942 
	C358.978363,374.825836 357.332977,372.808563 357.616180,368.265594 
	C357.924835,363.315643 357.790436,358.329346 357.657898,353.363983 
	C357.580170,350.452576 358.697937,348.945190 361.649689,349.062531 
	C364.786163,349.187195 367.920074,349.386292 371.052765,349.589325 
	C372.411011,349.677399 373.658386,350.128693 374.606934,351.150391 
	C375.782684,352.416840 376.999451,354.337982 376.227844,355.604065 
	C373.015900,360.874329 380.202393,366.387604 375.650909,371.395355 
	C372.597473,374.754883 368.420288,374.080841 364.028503,374.202942 
M373.056610,368.678802 
	C374.392365,366.213837 373.502197,364.217438 371.072906,363.683136 
	C367.991180,363.005341 364.393768,361.873047 361.788483,364.518646 
	C359.774445,366.563812 361.621216,370.464935 364.482178,370.630615 
	C367.232971,370.789948 370.111603,371.191223 373.056610,368.678802 
M361.803833,358.740265 
	C364.359924,360.502960 367.222046,359.885803 369.865479,359.379425 
	C372.834412,358.810669 373.804657,355.639648 371.750916,353.811310 
	C369.276428,351.608459 366.126495,351.943878 363.306488,352.635468 
	C360.489929,353.326202 361.347778,355.961090 361.803833,358.740265 
z"/>
<path fill="#000000" opacity="1.000000" stroke="none" 
	d="
M248.179230,374.155426 
	C245.666031,374.046417 244.762817,372.900543 244.760712,370.929169 
	C244.754120,364.793365 244.756546,358.657501 244.740952,352.521729 
	C244.736710,350.856598 245.222977,349.417206 247.079498,349.298462 
	C252.526657,348.950012 258.203705,348.162933 262.634552,352.388763 
	C266.370728,355.952026 266.958679,362.047394 264.722992,367.222961 
	C262.190674,373.085266 257.220764,374.184692 251.627731,374.201477 
	C250.632751,374.204468 249.637695,374.187531 248.179230,374.155426 
M254.008560,352.369049 
	C249.736084,351.650635 247.804825,353.231110 248.230896,357.758972 
	C248.525452,360.889435 248.352478,364.071136 248.274826,367.227142 
	C248.210831,369.827606 249.481369,370.647766 251.937195,370.733032 
	C257.347534,370.920868 261.664978,367.838654 262.538208,362.903107 
	C263.386078,358.111206 260.791016,354.604431 254.008560,352.369049 
z"/>
<path fill="#000000" opacity="1.000000" stroke="none" 
	d="
M282.020844,365.853516 
	C282.061035,361.055634 282.047272,356.734863 282.171295,352.418091 
	C282.208893,351.110718 282.460419,349.526062 284.309418,349.688965 
	C285.768890,349.817596 285.864380,351.186890 285.987671,352.357452 
	C286.022430,352.687439 285.987885,353.027740 286.048340,353.351501 
	C286.447601,355.489899 284.980804,358.531006 287.901398,359.479187 
	C290.874847,360.444550 294.183044,360.338104 297.245392,359.490906 
	C299.302155,358.921967 298.709351,356.813293 298.930084,355.227478 
	C299.201263,353.279419 298.136993,350.841064 301.592957,349.190002 
	C302.931061,357.634796 302.236053,365.577576 302.038818,374.053467 
	C298.487915,372.997314 298.780396,370.778198 298.996033,368.999512 
	C299.649963,363.606995 296.582031,363.187225 292.353790,363.213959 
	C288.301880,363.239532 285.424774,363.644165 286.021820,368.799652 
	C286.225555,370.558929 286.786255,372.898315 283.844299,373.979492 
	C281.147522,371.957275 282.342407,368.928192 282.020844,365.853516 
z"/>
<path fill="#000000" opacity="1.000000" stroke="none" 
	d="
M133.906815,369.278809 
	C134.412552,370.969055 135.833221,372.230682 133.993591,374.164795 
	C127.118645,366.484100 119.888298,364.422760 113.106804,374.054382 
	C111.213135,373.313538 111.445526,372.107971 111.920105,371.024719 
	C114.651520,364.790009 117.426712,358.574158 120.231850,352.372162 
	C120.910065,350.872650 121.586899,349.126282 123.691628,349.365662 
	C125.439224,349.564392 125.926125,351.150360 126.528603,352.525452 
	C128.926178,357.997437 131.333740,363.465057 133.906815,369.278809 
M120.555222,359.904419 
	C120.289047,361.425873 118.571548,362.665100 119.811340,364.793304 
	C122.073326,364.840332 124.479591,365.334778 127.230713,364.177338 
	C126.808502,360.564606 125.269135,357.559875 123.233932,353.992004 
	C122.195938,356.290955 121.521164,357.785431 120.555222,359.904419 
z"/>
<path fill="#000000" opacity="1.000000" stroke="none" 
	d="
M318.563568,371.439331 
	C321.367310,365.003418 324.038147,358.903198 326.750610,352.821564 
	C327.416840,351.327881 327.930664,349.560181 330.058807,349.564270 
	C332.219177,349.568420 332.615417,351.407379 333.286896,352.882721 
	C336.346710,359.605865 339.783020,366.181671 341.921051,373.140778 
	C340.173889,374.425415 339.289581,373.698608 338.525421,372.731476 
	C333.624329,366.528809 326.987640,366.457428 321.766510,372.463287 
	C320.513550,373.904572 318.817444,375.552094 318.563568,371.439331 
M333.277649,360.982422 
	C332.114502,359.087311 332.083954,356.552704 329.790527,354.862122 
	C328.363861,358.055420 326.082672,360.685425 326.241516,364.271973 
	C328.165771,365.310181 330.006287,364.841064 331.782745,364.868134 
	C334.315704,364.906769 334.405945,363.493103 333.277649,360.982422 
z"/>
<path fill="#000000" opacity="1.000000" stroke="none" 
	d="
M202.853821,355.289551 
	C202.901337,353.676910 202.869324,352.506195 203.018951,351.359161 
	C203.163239,350.253021 203.861023,349.516632 205.045456,349.637543 
	C205.995758,349.734528 206.470016,350.449982 206.447678,351.381683 
	C206.316467,356.854004 206.781815,362.438293 205.818680,367.762817 
	C205.011215,372.226807 201.246353,374.449066 196.444885,374.271576 
	C191.415161,374.085632 187.625519,371.345886 187.039032,366.375641 
	C186.478165,361.622559 186.792862,356.764130 186.764252,351.951782 
	C186.758163,350.928497 186.993332,349.827545 188.271515,349.767700 
	C189.842102,349.694183 190.134995,350.944641 190.154846,352.144562 
	C190.218018,355.963989 190.116257,359.787476 190.240417,363.604156 
	C190.391861,368.259125 192.802994,370.870087 196.755554,370.690186 
	C201.140472,370.490540 202.766830,367.744720 202.813873,363.714966 
	C202.844894,361.057465 202.841629,358.399536 202.853821,355.289551 
z"/>
<path fill="#000000" opacity="1.000000" stroke="none" 
	d="
M334.299896,223.813141 
	C329.948883,224.966278 326.464111,224.291061 324.943726,220.122925 
	C323.815887,217.030838 324.120361,213.828705 327.365448,211.824890 
	C330.432678,209.930893 333.437988,210.396057 336.049225,212.687820 
	C338.847046,215.143372 338.725281,218.207977 337.101318,221.236389 
	C336.587433,222.194672 335.500000,222.845352 334.299896,223.813141 
z"/>
<path fill="#000000" opacity="1.000000" stroke="none" 
	d="
M352.238953,218.740250 
	C350.888702,223.318939 347.967346,225.035751 343.814423,224.146667 
	C340.496246,223.436279 338.970184,220.939148 338.798553,217.612198 
	C338.615051,214.055130 340.655426,212.049530 343.738342,211.051208 
	C348.277069,209.581406 351.764587,212.622955 352.238953,218.740250 
z"/>
<path fill="#000000" opacity="1.000000" stroke="none" 
	d="
M307.686829,292.272339 
	C301.176392,295.146210 299.721802,294.245514 299.675537,287.808472 
	C299.663666,286.156860 299.765381,284.500549 299.674164,282.854187 
	C299.502930,279.764374 301.124969,278.846191 303.937225,278.870453 
	C306.784973,278.895081 308.294861,279.979645 308.155640,282.982025 
	C308.018219,285.945557 307.967224,288.913147 307.686829,292.272339 
z"/>
<path fill="#000000" opacity="1.000000" stroke="none" 
	d="
M397.307434,362.977051 
	C396.917175,366.895172 398.242096,370.596069 396.229553,373.819855 
	C393.307037,373.228607 393.748474,371.293610 393.728668,369.750702 
	C393.658264,364.266174 393.655212,358.779663 393.728424,353.295227 
	C393.746643,351.929230 393.186737,349.780609 395.331207,349.725891 
	C397.856537,349.661530 397.201172,352.007172 397.261017,353.511078 
	C397.379852,356.498566 397.303223,359.493805 397.307434,362.977051 
z"/>
</svg>